# xmcd
# 
# Track frame offsets:
#     150
#     22898
#     40908
#     62629
#     81946
#     100327
#     120062
#     138897
#     160883
#     178225
#     195246
# 
# Disc length: 2834
# 
# Revision: 0
# Processed by: cddbd v1.5.2PL0 Copyright (c) Steve Scherf et al.
# Submitted via: fre:ac v1.0.31
# 
DISCID=810b100b
DTITLE=張學友 - 走過1999
DYEAR=1999
DGENRE=Mandarin
TTITLE0=心如刀割
TTITLE1=壞×5（壞壞壞壞壞）
TTITLE2=她來聽我的演唱會
TTITLE3=二分之一的幸福
TTITLE4=留給自己一個晚上
TTITLE5=認床
TTITLE6=好呆
TTITLE7=走過1999
TTITLE8=你好毒
TTITLE9=放棄你
TTITLE10=女人香
EXTD=
EXTT0=
EXTT1=
EXTT2=
EXTT3=
EXTT4=
EXTT5=
EXTT6=
EXTT7=
EXTT8=
EXTT9=
EXTT10=
PLAYORDER=
